P2
# Formato P2 para imagenes PGM
# Bloque de Comentario.
#
16 8
70
0 0 0 0 0 0 0 0 0 0 0 0 0 0 0 0
0 3 3 3 3 0 0 7 7 7 7 0 0 1 1 1
0 3 0 0 0 0 0 7 0 0 0 0 0 1 0 0
0 3 3 3 0 0 0 7 7 7 0 0 0 1 1 1
0 3 0 0 0 0 0 7 0 0 0 0 0 1 0 0
0 3 0 0 0 0 0 7 7 7 7 0 0 1 1 1 
0 0 0 0 4 4 0 0 0 0 0 0 0 0 0 0 
0 0 0 0 0 0 0 0 1 1 2 3 3 0 0 1

