P3
# Formato P3 para imagenes PPM
# Bloque de Comentario.
#
16 8
90
5 0 0 	0 0 0 	0 0 0 	0 0 0 	0 0 0 	0 0 0 	0 0 0 	0 0 0 	0 0 0 	0 0 0	0 0 0 	0 0 0 	0 0 0 	0 0 0 	0 0 0 	0 0 0
5 3 3 	3 3 0 	0 7 7 	7 7 0 	0 1 1 	1 3 3 	3 3 0 	0 7 7 	7 7 0 	0 1 1	0 3 3 	3 3 0 	0 7 7 	7 7 0 	0 1 1 	1 3 3
0 3 0 	0 0 0 	0 7 0 	0 0 0 	0 1 0 	0 3 0 	0 0 0 	0 7 0 	0 0 0 	0 1 0	0 3 0 	0 0 0 	0 7 0 	0 0 0 	0 1 0 	0 3 0
0 3 3 	3 0 0 	0 7 7 	7 0 0 	0 1 1 	1 3 3 	3 0 0 	0 7 7 	7 0 0 	0 1 1	0 3 3 	3 0 0 	0 7 7 	7 0 0 	0 1 1 	1 3 3
0 3 0 	0 0 0 	0 7 0 	0 0 0 	0 1 0 	0 3 0 	0 0 0 	0 7 0 	0 0 0 	0 1 0	0 3 0 	0 0 0 	0 7 0 	0 0 0 	0 1 0 	0 3 0
5 3 0 	0 0 0 	0 7 7 	7 7 0 	0 1 1 	1 3 0 	0 0 0 	0 7 7 	7 7 0 	0 1 1	0 3 0 	0 0 0 	0 7 7 	7 7 0 	0 1 1 	1 3 0
0 0 0 	0 4 4 	0 0 0 	0 0 0 	0 0 0 	0 0 0 	0 4 4 	0 0 0 	0 0 0 	0 0 0	0 0 0 	0 4 4 	0 0 0 	0 0 0 	0 0 0 	0 0 0
0 0 0 	0 0 0 	0 0 1 	1 2 3 	3 0 0 	1 0 0 	0 0 0 	0 0 1 	1 2 3 	3 0 0	0 0 0 	0 0 0 	0 0 1 	1 2 3 	3 0 0 	1 0 0

